<?xml version="1.0" encoding="UTF-8" standalone="no"?>
<!-- Created with Inkscape (http://www.inkscape.org/) -->

<svg
   xmlns:dc="http://purl.org/dc/elements/1.1/"
   xmlns:cc="http://creativecommons.org/ns#"
   xmlns:rdf="http://www.w3.org/1999/02/22-rdf-syntax-ns#"
   xmlns:svg="http://www.w3.org/2000/svg"
   xmlns="http://www.w3.org/2000/svg"
   xmlns:xlink="http://www.w3.org/1999/xlink"
   xmlns:sodipodi="http://sodipodi.sourceforge.net/DTD/sodipodi-0.dtd"
   xmlns:inkscape="http://www.inkscape.org/namespaces/inkscape"
   version="1.0"
   width="160"
   height="160"
   id="svg2"
   inkscape:version="0.48.4 r9939"
   sodipodi:docname="Red_apple_with_leaf.svg">
  <metadata
     id="metadata41">
    <rdf:RDF>
      <cc:Work
         rdf:about="">
        <dc:format>image/svg+xml</dc:format>
        <dc:type
           rdf:resource="http://purl.org/dc/dcmitype/StillImage" />
        <dc:title></dc:title>
      </cc:Work>
    </rdf:RDF>
  </metadata>
  <sodipodi:namedview
     pagecolor="#ffffff"
     bordercolor="#666666"
     borderopacity="1"
     objecttolerance="10"
     gridtolerance="10"
     guidetolerance="10"
     inkscape:pageopacity="0"
     inkscape:pageshadow="2"
     inkscape:window-width="1280"
     inkscape:window-height="926"
     id="namedview39"
     showgrid="false"
     inkscape:zoom="1.475"
     inkscape:cx="80"
     inkscape:cy="80"
     inkscape:window-x="-5"
     inkscape:window-y="-5"
     inkscape:window-maximized="1"
     inkscape:current-layer="svg2" />
  <defs
     id="defs5">
    <linearGradient
       id="linearGradient3236">
      <stop
         id="stop3238"
         style="stop-color:#ffffff;stop-opacity:0.35416663"
         offset="0" />
      <stop
         id="stop3240"
         style="stop-color:#ffffff;stop-opacity:0"
         offset="1" />
    </linearGradient>
    <linearGradient
       id="linearGradient3222">
      <stop
         id="stop3224"
         style="stop-color:#58f248;stop-opacity:1"
         offset="0" />
      <stop
         id="stop3226"
         style="stop-color:#40b235;stop-opacity:1"
         offset="1" />
    </linearGradient>
    <linearGradient
       id="linearGradient3208">
      <stop
         id="stop3210"
         style="stop-color:#ff6d00;stop-opacity:1"
         offset="0" />
      <stop
         id="stop3212"
         style="stop-color:#d40000;stop-opacity:1"
         offset="1" />
    </linearGradient>
    <linearGradient
       id="linearGradient3160">
      <stop
         id="stop3162"
         style="stop-color:#dadada;stop-opacity:1"
         offset="0" />
      <stop
         id="stop3164"
         style="stop-color:#ffffff;stop-opacity:1"
         offset="1" />
    </linearGradient>
    <linearGradient
       id="linearGradient3148">
      <stop
         id="stop3150"
         style="stop-color:#4a0b02;stop-opacity:1"
         offset="0" />
      <stop
         id="stop3152"
         style="stop-color:#901604;stop-opacity:1"
         offset="1" />
    </linearGradient>
    <linearGradient
       id="linearGradient3136">
      <stop
         id="stop3138"
         style="stop-color:#0ff248;stop-opacity:1"
         offset="1"/>
      <stop
         id="stop3140"
         style="stop-color:#aef248;stop-opacity:1"
         offset="1" />
    </linearGradient>
    <linearGradient
       x1="21.907408"
       y1="19.555557"
       x2="100.75926"
       y2="104.88889"
       id="linearGradient3483"
       xlink:href="#linearGradient3136"
       gradientUnits="userSpaceOnUse" />
    <linearGradient
       x1="8.2962961"
       y1="85.333336"
       x2="52.740742"
       y2="61.629631"
       id="linearGradient3487"
       xlink:href="#linearGradient3148"
       gradientUnits="userSpaceOnUse" />
    <linearGradient
       x1="34.814816"
       y1="76"
       x2="39.703705"
       y2="68"
       id="linearGradient3489"
       xlink:href="#linearGradient3148"
       gradientUnits="userSpaceOnUse" />
    <radialGradient
       cx="45.68301"
       cy="38.459557"
       r="19.949936"
       fx="45.68301"
       fy="38.459557"
       id="radialGradient2226"
       xlink:href="#linearGradient3208"
       gradientUnits="userSpaceOnUse"
       gradientTransform="matrix(0.7578421,-0.030497,0.03150583,0.7829113,9.8508017,10.54763)" />
    <linearGradient
       x1="62.853935"
       y1="26.309134"
       x2="70.186897"
       y2="32.594528"
       id="linearGradient2228"
       xlink:href="#linearGradient3222"
       gradientUnits="userSpaceOnUse" />
    <linearGradient
       x1="38.759926"
       y1="32.804039"
       x2="50.91169"
       y2="44.536774"
       id="linearGradient2230"
       xlink:href="#linearGradient3236"
       gradientUnits="userSpaceOnUse" />
    <linearGradient
       x1="38.759926"
       y1="32.804039"
       x2="50.91169"
       y2="44.536774"
       id="linearGradient2232"
       xlink:href="#linearGradient3236"
       gradientUnits="userSpaceOnUse" />
    <linearGradient
       x1="72.444443"
       y1="82.740738"
       x2="68.296295"
       y2="73.111115"
       id="linearGradient2234"
       xlink:href="#linearGradient3160"
       gradientUnits="userSpaceOnUse" />
    <linearGradient
       inkscape:collect="always"
       xlink:href="#linearGradient3236"
       id="linearGradient3035"
       gradientUnits="userSpaceOnUse"
       x1="38.759926"
       y1="32.804039"
       x2="50.91169"
       y2="44.536774"
       gradientTransform="matrix(2.1731839,0,0,2.0283049,-37.712587,-6.2516795)" />
    <linearGradient
       inkscape:collect="always"
       xlink:href="#linearGradient3236"
       id="linearGradient3038"
       gradientUnits="userSpaceOnUse"
       x1="38.759926"
       y1="32.804039"
       x2="50.91169"
       y2="44.536774"
       gradientTransform="matrix(3.4770943,0,0,3.4770943,-114.38688,-72.961573)" />
    <linearGradient
       inkscape:collect="always"
       xlink:href="#linearGradient3222"
       id="linearGradient3042"
       gradientUnits="userSpaceOnUse"
       x1="62.853935"
       y1="26.309134"
       x2="70.186897"
       y2="32.594528"
       gradientTransform="matrix(3.4770943,0,0,3.4770943,-114.38688,-72.961573)" />
    <radialGradient
       inkscape:collect="always"
       xlink:href="#linearGradient3208"
       id="radialGradient3045"
       gradientUnits="userSpaceOnUse"
       gradientTransform="matrix(2.6350884,-0.10604094,0.10954874,2.7222564,-80.134714,-36.286469)"
       cx="45.68301"
       cy="38.459557"
       fx="45.68301"
       fy="38.459557"
       r="19.949936" />
  </defs>
  <path
     d="m 82.595773,54.791107 c 0,0 -21.854904,-32.053862 -41.524323,-18.940919 -50.2662829,33.510855 -26.767961,114.037062 7.284969,116.559502 19.669418,1.45699 15.265466,-4.73707 28.411379,-3.64249 13.080495,1.08914 8.741964,4.37098 26.954382,5.09948 38.63153,-0.15403 69.39066,-96.816283 11.65595,-110.003027 -18.940914,-5.099479 -31.325364,11.65595 -32.782357,10.927454 z"
     id="path3454"
     style="fill:#000000;fill-opacity:0.21153846;fill-rule:evenodd;stroke-width:1px;stroke-linecap:butt;stroke-linejoin:miter;stroke-opacity:1"
     inkscape:connector-curvature="0" />
  <path
     d="m 76.479303,49.114635 9.470458,0 c 0,0 -5.099479,-42.9813149 -11.655951,-42.9813149 -6.556471,0 -8.741961,5.8279749 -8.741961,5.8279749 0,0 16.755429,25.49739 10.927454,37.15334 z"
     id="path3218"
     style="fill:#1a1a1a;fill-rule:evenodd;stroke-width:1px;stroke-linecap:butt;stroke-linejoin:miter;stroke-opacity:1"
     inkscape:connector-curvature="0" />
  <path
     d="m 80.121786,49.843132 c 0,0 -21.854905,-32.053862 -41.524323,-18.940918 -50.266283,33.510854 -26.767962,114.037056 7.284968,116.559496 19.669418,1.457 15.265466,-4.73707 28.411379,-3.64248 13.080495,1.08914 8.741965,4.37098 26.95439,5.09948 38.63153,-0.15404 69.39066,-96.816287 11.65595,-110.003032 -18.940921,-5.099479 -31.325372,11.65595 -32.782364,10.927454 z"
     id="path3206"
     style="fill:url(#radialGradient3045);fill-opacity:1;fill-rule:evenodd;stroke:#000000;stroke-width:3.47709441px;stroke-linecap:butt;stroke-linejoin:miter;stroke-opacity:1"
     inkscape:connector-curvature="0" />
  <path
     d="m 81.578778,44.743653 c 0,0 0,-19.669415 19.669422,-29.139875 19.66941,-9.4704579 38.61033,5.099478 47.35229,3.642485 8.74197,-1.456993 -16.02693,29.868372 -42.25282,31.325365 C 80.121786,52.028621 81.578778,45.47215 81.578778,44.743653 z"
     id="path3220"
     style="fill:url(#linearGradient3042);fill-opacity:1;fill-rule:evenodd;stroke:#000000;stroke-width:3.47709441px;stroke-linecap:butt;stroke-linejoin:miter;stroke-opacity:1"
     inkscape:connector-curvature="0" />
  <path
     d="M 83.764271,46.200646 C 86.678257,44.743653 94.691722,36.730189 103.43369,36.001689"
     id="path3230"
     style="fill:none;stroke:#000000;stroke-width:3.47709441px;stroke-linecap:round;stroke-linejoin:miter;stroke-opacity:1"
     inkscape:connector-curvature="0" />
  <path
     d="m 53.167396,64.413072 a 8.7419627,8.7419627 0 1 1 -17.483926,0 8.7419627,8.7419627 0 1 1 17.483926,0 z"
     id="path3232"
     style="fill:url(#linearGradient3038);fill-opacity:1;fill-rule:nonzero;stroke-width:0.2;stroke-linecap:round;stroke-linejoin:round;stroke-miterlimit:4;stroke-opacity:1;stroke-dasharray:none"
     inkscape:connector-curvature="0" />
  <path
     d="m 67.008834,73.883526 a 5.4637266,5.099478 0 1 1 -10.927454,0 5.4637266,5.099478 0 1 1 10.927454,0 z"
     id="path3244"
     style="fill:url(#linearGradient3035);fill-opacity:1;fill-rule:nonzero;stroke-width:0.2;stroke-linecap:round;stroke-linejoin:round;stroke-miterlimit:4;stroke-opacity:1;stroke-dasharray:none"
     inkscape:connector-curvature="0" />
  <path
     style="opacity:0.07000002;fill:#ffffff;fill-opacity:1;fill-rule:nonzero;stroke:none"
     d="m 95.050847,146.54527 c -2.423728,-0.29193 -6.908135,-1.32798 -9.965349,-2.30233 -3.057213,-0.97436 -7.938568,-1.94612 -10.847457,-2.15946 -4.556965,-0.33421 -6.039472,-0.13901 -10.712617,1.41058 -7.216252,2.39286 -14.876278,2.92968 -20.655415,1.44752 C 26.31158,140.6949 13.146207,118.29173 11.877879,92.203081 10.6724,67.407207 19.1629,47.934191 37.194442,34.13938 c 4.04082,-3.09138 7.2411,-4.24187 11.860936,-4.263966 7.750374,-0.03707 17.446201,6.216326 26.11106,16.840518 4.123365,5.05576 4.822925,5.471294 6.962023,4.135408 1.018692,-0.636186 1.706753,-0.613269 3.211139,0.106952 1.236359,0.591906 5.556875,1.027483 12.195953,1.229545 11.407077,0.347179 17.277017,-0.536012 23.853807,-3.589046 1.99465,-0.925945 4.07662,-1.683537 4.62659,-1.683537 1.89896,0 8.86714,7.457665 11.28732,12.080209 4.60704,8.799403 6.09377,17.213673 5.17656,29.297138 -1.21102,15.954269 -6.41603,30.296909 -15.38449,42.392669 -6.51673,8.78911 -13.93095,14.18373 -21.73888,15.81731 -3.90881,0.81779 -3.87144,0.81764 -10.305613,0.0427 l 0,-2e-5 z m -42.683204,-69.712094 3.079507,-1.890213 1.757664,1.918349 c 3.819182,4.168333 10.049291,1.400696 9.416952,-4.183346 -0.196682,-1.736851 -3.38649,-4.067797 -5.566622,-4.067797 -2.025145,0 -2.048827,-0.04058 -1.594199,-2.731503 0.81017,-4.795355 -0.755181,-9.2308 -4.674064,-13.244028 C 51.863308,49.640682 50.737772,48.967372 47.582009,48.324591 35.02642,45.76721 25.254951,58.89446 31.05314,70.52991 c 4.14436,8.316647 13.518117,11.088716 21.314503,6.303266 l 0,0 z"
     id="path3049"
     inkscape:connector-curvature="0" />
  <path
     style="opacity:0.07000002;fill:#ffffff;fill-opacity:1;fill-rule:nonzero;stroke:none"
     d="m 95.354854,146.52678 c -2.629403,-0.31108 -7.266352,-1.35081 -10.304332,-2.3105 -3.037973,-0.9597 -7.903592,-1.91877 -10.812481,-2.13129 -4.600885,-0.33612 -6.038529,-0.13984 -11.0516,1.50886 -4.817609,1.58441 -6.930193,1.89679 -12.881356,1.90464 -6.583963,0.009 -7.462802,-0.1517 -11.700697,-2.13536 C 16.644563,133.08423 5.0704917,92.292079 15.782846,62.929896 19.993678,51.388155 27.04966,41.900521 37.194442,34.13938 c 4.094145,-3.132176 7.082988,-4.173278 11.980829,-4.173278 3.596873,0 5.142638,0.402811 9.053159,2.359165 6.364009,3.183783 13.239024,9.318314 19.731188,17.606009 1.47447,1.882262 1.670084,1.939909 3.875968,1.14225 1.871485,-0.676736 2.624041,-0.668336 3.870895,0.04321 C 86.824637,51.754839 90.735519,52 99.79661,52 c 12.52201,0 12.55228,-0.0037 18.64407,-2.247614 3.35593,-1.236188 6.65824,-2.421762 7.33847,-2.634608 1.74255,-0.545254 9.00484,7.103358 11.83633,12.465983 6.1913,11.725807 6.66133,31.103821 1.16301,47.947469 -7.27188,22.27678 -21.15694,37.57508 -35.59205,39.21463 -1.67797,0.19059 -5.202182,0.092 -7.831586,-0.21908 z M 61.627329,77.822917 c 0.298189,-0.526209 1.510038,-2.017514 2.692998,-3.31401 1.940038,-2.126236 2.057869,-2.489996 1.202257,-3.711552 -1.192028,-1.701859 -3.774917,-2.379891 -5.935991,-1.558252 l -1.660048,0.631149 0.349763,-4.357311 c 0.442674,-5.514778 -0.978073,-9.498938 -4.532389,-12.710049 -7.05473,-6.373525 -17.353332,-4.528778 -21.68266,3.883926 -4.751451,9.232969 1.058422,20.438746 11.02544,21.265288 4.689518,0.388892 7.793812,-0.650333 10.87167,-3.639511 l 2.448411,-2.377866 0,2.040123 c 0,3.291508 3.904882,6.169795 5.220549,3.848065 z"
     id="path3051"
     inkscape:connector-curvature="0" />
  <path
     style="opacity:0.07000002;fill:#ffffff;fill-opacity:1;fill-rule:nonzero;stroke:none"
     d="m 96.028197,146.52064 c -2.631946,-0.25357 -7.410197,-1.26166 -10.618339,-2.24021 -9.067409,-2.76573 -14.596338,-2.98972 -21.92379,-0.88819 -3.334286,0.95628 -7.587763,1.92528 -9.45217,2.15333 -4.709337,0.57604 -12.65292,-0.69208 -16.465267,-2.62854 -10.961059,-5.5676 -19.835392,-19.80857 -24.335848,-39.05262 -1.708519,-7.305669 -1.695107,-24.785597 0.02471,-32.203393 3.746267,-16.158153 12.597148,-29.64561 25.028233,-38.139393 l 4.707569,-3.216539 5.859285,0 c 5.403791,0 6.201865,0.184355 10.266066,2.371459 4.205424,2.263102 15.253444,12.340575 18.917469,17.255605 1.372395,1.840969 1.652409,1.938985 3.522646,1.233051 1.52718,-0.576446 2.570841,-0.568015 4.20259,0.03395 C 87.132305,51.704909 92.428827,52 100.13559,52 c 12.13821,0 12.23599,-0.01201 18.30509,-2.247614 3.35593,-1.236188 6.63657,-2.416093 7.2903,-2.622012 1.97797,-0.623037 9.48084,7.61936 12.26508,13.474013 3.71912,7.820475 4.76191,13.91972 4.31245,25.223573 -0.58912,14.81652 -4.44779,27.86728 -11.61454,39.28259 -4.90465,7.8122 -8.06023,11.47946 -13.27024,15.42203 -7.08839,5.36398 -12.41108,6.85367 -21.395533,5.98806 l 0,0 z M 48.569849,77.081949 c 2.552371,-0.546506 6.910312,-3.990477 8.196322,-6.477346 1.267927,-2.451902 1.303558,-10.136034 0.06043,-13.033158 -2.36624,-5.514562 -9.058478,-8.986542 -15.133838,-7.851541 -7.759981,1.449721 -12.869376,10.538168 -10.277104,18.280623 1.634631,4.882222 5.358526,8.261273 10.414845,9.450396 2.038821,0.479481 3.030279,0.4252 6.739341,-0.368974 z m 12.081582,-7.685681 c -1.597711,-0.377985 -4.244651,2.624222 -4.244651,4.81436 0,1.954478 0.02617,1.9414 2.610217,-1.30462 1.884081,-2.366734 2.338764,-3.34311 1.634434,-3.50974 l 0,0 z"
     id="path3053"
     inkscape:connector-curvature="0" />
  <path
     style="opacity:0.07000002;fill:#ffffff;fill-opacity:1;fill-rule:nonzero;stroke:none"
     d="m 87.932203,144.884 c -13.18005,-3.67276 -16.398346,-3.83422 -25.114055,-1.25995 -7.895373,2.33197 -17.027829,2.45862 -22.682555,0.31457 -12.187802,-4.62115 -22.570624,-20.16224 -26.865471,-40.21247 -1.676156,-7.825033 -1.697423,-23.9049 -0.04183,-31.626669 2.624691,-12.24168 8.261575,-22.81389 16.718731,-31.356673 2.807102,-2.835523 6.907546,-6.343998 9.112096,-7.79661 3.828107,-2.522398 4.255187,-2.641113 9.501467,-2.641113 7.861246,0 12.74052,2.495419 21.07988,10.780933 3.414569,3.392521 7.048064,7.21615 8.074434,8.496955 1.733179,2.162829 2.008956,2.274826 3.870861,1.572033 1.495864,-0.564625 2.555769,-0.553419 4.175586,0.04414 1.390427,0.512941 6.679878,0.791146 14.713231,0.77386 12.50441,-0.02691 12.55981,-0.03369 18.30508,-2.240552 3.16949,-1.217461 6.29417,-2.384327 6.94373,-2.593038 0.82586,-0.265358 2.3652,0.830734 5.11885,3.644896 4.75689,4.861407 6.94216,8.462824 9.42175,15.527446 1.75629,5.003889 1.87838,6.071486 1.8909,16.535694 0.0147,12.233282 -0.77414,17.057814 -4.54465,27.796606 -5.15902,14.69343 -15.89785,28.55859 -25.96499,33.52401 -3.5229,1.7376 -4.93733,2.02586 -10.83169,2.2074 -5.599214,0.17247 -7.842062,-0.0872 -12.881357,-1.49148 l 0,10e-6 z M 51.963124,74.884355 c 3.979278,-2.796741 5.468179,-5.771712 5.410761,-10.811231 -0.08339,-7.318882 -3.518267,-12.031826 -10.091857,-13.846882 -7.997318,-2.208166 -15.959994,4.54726 -15.959994,13.540241 0,5.908806 3.816046,11.258059 9.27795,13.005635 3.259734,1.042976 8.410786,0.187229 11.36314,-1.887763 l 0,0 z"
     id="path3055"
     inkscape:connector-curvature="0" />
  <path
     style="opacity:0.07000002;fill:#ffffff;fill-opacity:1;fill-rule:nonzero;stroke:none"
     d="m 87.932203,144.88951 c -13.050619,-3.64847 -16.20712,-3.81697 -25.084745,-1.33906 -7.195802,2.00848 -16.361664,2.30842 -21.644924,0.70829 C 23.207577,138.80866 9.1085595,107.39069 12.200524,79.63123 13.49729,67.988939 16.644807,58.782698 22.342718,49.966102 26.097412,44.15632 33.658872,36.485886 39.118644,32.948405 c 3.866721,-2.505316 4.337443,-2.635787 9.522811,-2.639458 4.893917,-0.0035 5.936956,0.24021 10.140478,2.369019 4.537089,2.297739 14.057786,10.796153 18.938527,16.905007 1.734855,2.171386 1.997587,2.277019 3.888347,1.563335 1.472501,-0.555806 2.523098,-0.563764 3.836603,-0.02906 2.651261,1.079276 20.87548,1.523789 25.97551,0.633578 2.36934,-0.41357 6.69235,-1.670998 9.60668,-2.794283 l 5.29878,-2.042338 2.27885,1.738162 c 4.74354,3.618078 9.94948,11.880256 12.14809,19.27984 2.61054,8.785964 1.9857,25.54559 -1.38744,37.214737 -2.08141,7.20049 -6.58248,16.8338 -10.80837,23.13238 -4.14146,6.17273 -11.40139,12.9789 -16.73209,15.68626 -3.75193,1.90554 -5.00156,2.17671 -11.01186,2.3896 -5.665574,0.20067 -7.78234,-0.0402 -12.881357,-1.46567 l 0,0 z M 50.044805,75.448735 c 4.168779,-1.893119 6.561912,-5.434471 6.908272,-10.222837 0.359591,-4.971305 -0.686133,-8.145395 -3.664941,-11.124203 -7.585105,-7.585104 -19.42472,-3.377785 -21.530663,7.651125 -0.863773,4.523613 1.940448,10.519465 6.291124,13.451385 2.873683,1.936576 8.038381,2.041853 11.996208,0.24453 l 0,0 z"
     id="path3057"
     inkscape:connector-curvature="0" />
  <path
     style="opacity:0.07000002;fill:#ffffff;fill-opacity:1;fill-rule:nonzero;stroke:none"
     d="m 90.644068,145.59644 c -2.237288,-0.52635 -5.593221,-1.44117 -7.457627,-2.03296 -6.525209,-2.07116 -12.769673,-2.08239 -20.618762,-0.0371 -6.020004,1.56869 -8.066397,1.79867 -13.898305,1.56193 -5.882707,-0.2388 -7.401434,-0.55705 -10.862598,-2.2762 C 29.571894,138.72188 21.273143,127.86095 16.782547,115.29681 5.9868066,85.091653 13.257054,53.409643 34.944197,36.152661 c 6.353984,-5.056018 9.829707,-6.435246 15.14245,-6.00879 2.662214,0.213697 5.668225,1.017222 7.911676,2.114841 4.773657,2.335532 11.910796,8.403775 17.006998,14.459937 3.760882,4.469309 4.287594,4.855771 6.147221,4.510358 2.69019,-0.499685 2.808414,-0.493518 7.041689,0.367346 4.591627,0.933739 18.959609,0.965812 23.895609,0.05334 2.05079,-0.379109 6.10114,-1.60283 9.00077,-2.719379 l 5.27207,-2.030089 2.14069,1.78048 c 5.56632,4.629677 10.71135,13.117604 12.54656,20.69851 2.18281,9.016734 1.51414,23.421598 -1.63314,35.181932 -4.6352,17.32024 -16.19083,33.66044 -27.87066,39.4104 -3.68484,1.81404 -5.19282,2.14928 -10.56627,2.34895 -3.846368,0.14294 -7.839582,-0.13681 -10.335792,-0.72406 l 0,0 z M 50.535077,75.059084 c 4.940398,-2.348087 7.556907,-9.004104 5.923754,-15.069171 -1.619298,-6.013614 -7.325672,-10.136375 -13.085678,-9.454188 -8.873809,1.050971 -14.039047,10.893078 -9.981057,19.018414 1.377793,2.758765 4.531162,5.631143 7.421463,6.760151 1.78921,0.698901 7.035192,0.02156 9.721518,-1.255206 l 0,0 z"
     id="path3059"
     inkscape:connector-curvature="0" />
  <path
     style="opacity:0.07000002;fill:#ffffff;fill-opacity:1;fill-rule:nonzero;stroke:none"
     d="m 87.254237,144.57087 c -11.235191,-3.07523 -16.085859,-3.28076 -24.745762,-1.04855 -6.081357,1.56756 -8.106537,1.79148 -13.898306,1.53675 C 40.414036,144.6986 36.626037,143.05782 30.409533,137.17546 14.136208,121.77684 7.3417067,89.701157 15.167484,65.220339 c 3.510799,-10.98258 11.136422,-22.158215 19.83757,-29.072698 6.45744,-5.131491 9.928137,-6.488114 15.342689,-5.99714 7.455201,0.676014 15.796782,6.222387 24.418476,16.236007 l 4.352425,5.055101 3.728814,0.03898 c 2.050847,0.02144 8.349579,0.260196 13.997186,0.53058 11.822276,0.566 16.266456,-0.0018 24.307896,-3.105859 l 5.42373,-2.093574 4.52074,4.735033 c 4.85962,5.089986 8.49896,11.700579 10.14043,18.419339 1.56842,6.419745 1.09438,22.005889 -0.93821,30.847456 -3.21916,14.00301 -9.95553,26.78235 -18.78649,35.63919 -7.12357,7.14445 -11.88043,9.43709 -20.44016,9.85145 -5.55496,0.26891 -7.305427,0.0494 -13.818343,-1.73333 l 0,0 z M 50.535077,75.065652 C 57.384624,71.792894 59.1476,61.251777 53.890355,55.003896 51.69624,52.396339 47.61178,50.305085 44.713036,50.305085 c -3.159257,0 -7.849159,2.575202 -10.300856,5.65615 -1.876499,2.35812 -2.073197,3.065673 -2.073197,7.457627 0,5.675051 1.556471,8.64631 6.095688,11.636496 2.245102,1.47895 3.307527,1.743729 6.107702,1.522174 1.864407,-0.147515 4.561123,-0.827861 5.992704,-1.51188 l 0,0 z"
     id="path3061"
     inkscape:connector-curvature="0" />
  <path
     style="opacity:0.07000002;fill:#ffffff;fill-opacity:1;fill-rule:nonzero;stroke:none"
     d="m 91.322034,145.62771 c -2.237288,-0.51237 -5.745763,-1.43215 -7.79661,-2.04397 -7.082936,-2.11299 -12.477074,-2.13106 -21.061791,-0.0705 -10.567424,2.53647 -18.193483,2.24941 -24.647209,-0.92774 C 21.475915,134.5411 9.5735977,105.19073 12.317397,79.706485 14.063198,63.491589 20.045755,50.590974 30.687498,40.093728 41.183085,29.740653 48.493487,27.723416 58.233542,32.492654 c 4.638871,2.271433 12.261695,8.73351 17.156289,14.543855 l 3.728813,4.426455 3.728814,0.0283 c 2.050847,0.01556 8.349579,0.249519 13.997186,0.519903 11.800946,0.564979 16.263346,-0.0022 24.255656,-3.082617 l 5.37148,-2.070332 3.31057,3.248859 c 4.74341,4.654987 7.94547,9.797887 10.23536,16.439254 1.84969,5.364633 1.99809,6.51904 2.00846,15.623165 0.0127,11.163041 -1.13161,18.442126 -4.34583,27.643986 -5.51321,15.78356 -15.98977,29.29507 -26.61075,34.3196 -4.71773,2.23184 -13.594702,2.90371 -19.747556,1.49463 l 0,0 z M 50.535077,75.065652 C 57.384624,71.792894 59.1476,61.251777 53.890355,55.003896 51.69624,52.396339 47.61178,50.305085 44.713036,50.305085 c -3.159257,0 -7.849159,2.575202 -10.300856,5.65615 -1.880915,2.363669 -2.073197,3.059945 -2.073197,7.507301 0,5.721172 1.484697,8.549954 6.07401,11.572766 2.267395,1.49345 3.323778,1.758215 6.12938,1.53623 1.864407,-0.147515 4.561123,-0.827861 5.992704,-1.51188 l 0,0 z"
     id="path3063"
     inkscape:connector-curvature="0" />
  <path
     style="opacity:0.07000002;fill:#ffffff;fill-opacity:1;fill-rule:nonzero;stroke:none"
     d="m 91.322034,145.6264 c -2.237288,-0.51165 -5.745763,-1.43084 -7.79661,-2.04266 -6.999461,-2.08809 -12.365281,-2.1046 -21.355932,-0.0657 -14.651346,3.32264 -23.220868,1.70911 -31.272107,-5.88814 C 12.295223,120.07667 6.3681173,83.357572 18.054161,58.064664 22.735566,47.932375 31.563719,37.653847 39.858612,32.677966 c 3.608981,-2.16493 4.403446,-2.370165 9.065463,-2.341891 4.205832,0.02551 5.767515,0.364461 8.827433,1.915933 5.147396,2.609887 12.058496,8.344738 17.072147,14.166517 4.154508,4.824152 4.278291,4.905173 7.648745,5.006303 1.884251,0.05654 8.184441,0.324775 14.00042,0.596086 12.1641,0.567444 16.60016,0.0063 24.67972,-3.122041 l 5.42373,-2.100005 4.40678,4.698185 c 4.84576,5.166196 8.20152,11.22475 9.90911,17.890097 1.55481,6.069036 0.97443,25.81821 -0.97336,33.12132 -3.13571,11.75716 -7.97577,21.52482 -14.87018,30.00933 -4.32265,5.31962 -11.39443,10.87564 -15.73196,12.35999 -4.36709,1.49447 -13.137657,1.85934 -17.994626,0.74861 l 0,0 z M 50.65831,74.998649 c 6.726761,-3.192057 8.441979,-13.803098 3.232045,-19.994753 -2.194115,-2.607557 -6.278575,-4.698811 -9.177319,-4.698811 -3.159257,0 -7.849159,2.575202 -10.300856,5.65615 -1.880915,2.363669 -2.073197,3.059945 -2.073197,7.507301 0,5.719888 1.482542,8.545619 6.07401,11.577081 2.340166,1.545067 3.251699,1.759257 6.252614,1.469226 1.932185,-0.18674 4.628901,-0.869027 5.992703,-1.516194 z"
     id="path3065"
     inkscape:connector-curvature="0" />
  <path
     style="opacity:0.07000002;fill:#ffffff;fill-opacity:1;fill-rule:nonzero;stroke:none"
     d="m 90.644068,145.29212 c -2.983051,-0.69121 -7.559322,-1.74754 -10.169492,-2.3474 -6.534945,-1.50185 -9.629328,-1.39302 -18.648657,0.6559 -10.075477,2.28885 -17.752306,2.0207 -23.638449,-0.82568 C 33.398535,140.45915 25.794157,132.84519 22.326098,126.89359 12.630351,110.25456 9.4209067,86.363694 14.41492,68.003366 18.275796,53.80898 28.641855,39.421803 39.867113,32.677966 c 3.626056,-2.178438 4.368324,-2.367686 9.058248,-2.309484 4.157793,0.0516 5.802503,0.413849 8.837351,1.946441 5.064428,2.557526 12.062968,8.368314 17.085514,14.185859 4.09254,4.740333 4.220201,4.822977 7.606242,4.924046 1.894108,0.05654 8.202373,0.324775 14.018352,0.596086 12.09201,0.564081 16.49281,0.01369 24.67972,-3.086615 l 5.42373,-2.053912 4.0678,4.254722 c 4.55061,4.759732 8.59181,11.86629 10.15024,17.849501 1.37604,5.282983 1.37277,20.56877 -0.006,28.47579 -2.64283,15.15512 -9.785,29.40622 -19.61624,39.14119 -8.85358,8.76688 -18.43133,11.49343 -30.527902,8.69053 l 0,0 z M 50.65831,74.998649 c 6.726761,-3.192057 8.441979,-13.803098 3.232045,-19.994753 -2.194115,-2.607557 -6.278575,-4.698811 -9.177319,-4.698811 -3.159257,0 -7.849159,2.575202 -10.300856,5.65615 -1.880915,2.363669 -2.073197,3.059945 -2.073197,7.507301 0,5.719888 1.482542,8.545619 6.07401,11.577081 2.340166,1.545067 3.251699,1.759257 6.252614,1.469226 1.932185,-0.18674 4.628901,-0.869027 5.992703,-1.516194 z"
     id="path3067"
     inkscape:connector-curvature="0" />
  <path
     style="opacity:0.07000002;fill:#ffffff;fill-opacity:1;fill-rule:nonzero;stroke:none"
     d="m 93.454488,145.84296 c -2.183078,-0.32537 -6.262461,-1.23506 -9.065288,-2.02154 -7.768043,-2.17971 -13.688485,-2.37442 -20.524793,-0.67501 -16.387047,4.0736 -26.363096,1.84267 -35.252164,-7.88338 -6.184282,-6.76659 -10.644705,-15.54816 -13.996138,-27.55524 -1.445792,-5.1798 -1.79115,-8.137946 -2.07131,-17.741688 -0.386555,-13.25096 0.715263,-20.538354 4.468382,-29.553751 4.469051,-10.735144 14.143613,-22.478376 22.835127,-27.717868 3.541156,-2.13471 4.373092,-2.352287 8.8441,-2.313016 4.106474,0.03607 5.659624,0.399958 9.248795,2.166901 5.033002,2.477739 12.962501,9.112187 17.787615,14.88253 3.307376,3.955284 3.472284,4.05416 6.779661,4.064952 1.864406,0.0061 8.148366,0.237703 13.964345,0.514709 12.10267,0.57643 16.48824,0.02875 24.67972,-3.082086 l 5.42373,-2.059739 4.24897,4.519886 c 4.93665,5.251415 9.27681,13.418488 10.4129,19.594431 1.12614,6.121931 0.33094,24.464093 -1.35379,31.226199 -4.63167,18.59046 -16.20556,35.53068 -28.22333,41.30928 -5.34869,2.57185 -11.37999,3.34187 -18.206532,2.32443 l 0,0 z M 50.65831,74.998649 c 6.726761,-3.192057 8.441979,-13.803098 3.232045,-19.994753 -2.19526,-2.608918 -6.286782,-4.703046 -9.151482,-4.683922 -5.669476,0.03785 -11.64052,5.19343 -12.477266,10.773252 -0.518711,3.459011 0.500476,8.15608 2.294122,10.572795 0.645196,0.869321 2.393424,2.392332 3.884949,3.384468 2.317268,1.541405 3.22304,1.754479 6.224929,1.464354 1.932185,-0.18674 4.628901,-0.869027 5.992703,-1.516194 l 0,0 z"
     id="path3069"
     inkscape:connector-curvature="0" />
  <path
     style="opacity:0.07000002;fill:#ffffff;fill-opacity:1;fill-rule:nonzero;stroke:none"
     d="m 94.372881,145.8926 c -2.050847,-0.27825 -6.311396,-1.17675 -9.467884,-1.99668 -8.925223,-2.31843 -13.631032,-2.48543 -21.037499,-0.7466 -11.746227,2.75768 -19.561569,2.52667 -26.392519,-0.78013 -7.31802,-3.5426 -16.162611,-15.16941 -20.356643,-26.76018 -3.815318,-10.54415 -4.942271,-18.092142 -4.587789,-30.727654 0.342974,-12.225354 1.486979,-17.950524 5.241454,-26.23084 4.504051,-9.933474 13.983811,-21.079813 22.075134,-25.956033 3.522801,-2.123009 4.388945,-2.352158 8.746102,-2.313887 3.657355,0.03213 5.735985,0.455615 8.528202,1.737491 4.885074,2.242685 12.887899,8.796702 17.929408,14.683522 3.927472,4.58599 4.173038,4.74924 7.118645,4.732368 1.677966,-0.0096 7.950454,0.209005 13.938861,0.485815 12.441527,0.5751 16.809427,0.03595 25.044187,-3.091319 l 5.42373,-2.059739 4.16628,4.430867 c 4.88599,5.196286 9.23839,13.475164 10.46681,19.909307 1.32269,6.92799 0.43138,23.99831 -1.68162,32.206152 -1.97845,7.68516 -7.19488,19.06354 -11.51565,25.11854 -3.82565,5.36118 -11.3579,12.43799 -15.76437,14.81118 -2.89377,1.55849 -10.88939,3.4162 -13.468059,3.12917 -0.372881,-0.0415 -2.355932,-0.30312 -4.40678,-0.58135 l 0,0 z M 50.65831,74.998649 c 6.726761,-3.192057 8.441979,-13.803098 3.232045,-19.994753 -2.19526,-2.608918 -6.286782,-4.703046 -9.151482,-4.683922 -5.669476,0.03785 -11.64052,5.19343 -12.477266,10.773252 -0.518711,3.459011 0.500476,8.15608 2.294122,10.572795 0.645196,0.869321 2.393424,2.392332 3.884949,3.384468 2.317268,1.541405 3.22304,1.754479 6.224929,1.464354 1.932185,-0.18674 4.628901,-0.869027 5.992703,-1.516194 l 0,0 z"
     id="path3071"
     inkscape:connector-curvature="0" />
  <path
     style="opacity:0.07000002;fill:#ffffff;fill-opacity:1;fill-rule:nonzero;stroke:none"
     d="m 94.372881,145.89926 c -2.050847,-0.2819 -6.322034,-1.20544 -9.491525,-2.05229 -7.877203,-2.1047 -15.138401,-2.10883 -25.575837,-0.0145 -7.323623,1.4695 -8.870448,1.57899 -13.297296,0.94123 -6.549821,-0.94362 -10.668115,-3.04833 -15.708203,-8.02793 -7.315397,-7.22758 -12.300647,-16.51701 -15.765192,-29.37658 -1.607349,-5.9661 -1.770252,-7.744475 -1.811518,-19.77596 -0.05105,-14.884781 0.87178,-19.948964 5.357986,-29.402743 6.195768,-13.056337 18.96624,-26.086616 27.045815,-27.596044 4.192416,-0.783229 10.069423,0.291157 14.050314,2.568562 4.654003,2.662481 11.83232,8.874117 16.212406,14.029131 3.290469,3.872622 4.007762,4.385982 6.101694,4.36694 1.305085,-0.01187 7.56257,0.202792 13.905526,0.477023 13.087519,0.565827 17.396549,0.05139 25.738709,-3.072835 l 5.40694,-2.024956 2.61038,2.530851 c 3.81048,3.694401 8.88637,11.574818 10.64426,16.52541 2.94549,8.295146 2.57905,26.945248 -0.7707,39.225781 -1.60572,5.8867 -6.01876,15.58677 -9.73224,21.39188 -5.12542,8.01233 -14.00838,15.92594 -20.37419,18.15087 -3.61177,1.26235 -9.99981,1.76128 -14.547329,1.13617 z M 50.65831,74.998649 c 6.726761,-3.192057 8.441979,-13.803098 3.232045,-19.994753 -2.175154,-2.585023 -6.271958,-4.698811 -9.106923,-4.698811 -3.094456,0 -7.691854,2.412092 -10.049925,5.27284 -2.440348,2.960564 -3.258846,7.373775 -2.142024,11.549444 0.993927,3.716184 2.411569,5.636473 5.849195,7.92312 2.317268,1.541405 3.22304,1.754479 6.224929,1.464354 1.932185,-0.18674 4.628901,-0.869027 5.992703,-1.516194 l 0,0 z"
     id="path3073"
     inkscape:connector-curvature="0" />
  <path
     style="opacity:0.07000002;fill:#ffffff;fill-opacity:1;fill-rule:nonzero;stroke:none"
     d="m 94.711864,145.79668 c -2.237288,-0.25242 -6.650379,-1.11877 -9.806867,-1.92524 -9.00343,-2.30034 -13.542303,-2.4396 -21.379573,-0.65598 -4.527941,1.03049 -9.035908,1.55252 -13.572949,1.57177 -6.253736,0.0265 -7.160903,-0.1432 -11.421791,-2.13711 C 27.896459,137.67376 18.695877,123.8529 14.218322,106.12875 12.918047,100.98169 12.702629,98.317037 12.692454,87.254237 12.682173,76.076473 12.877079,73.65558 14.1662,68.949153 17.319094,57.438306 23.180353,47.627741 31.857273,39.33786 c 7.758735,-7.412651 10.452621,-8.831349 16.722651,-8.806757 8.330361,0.03267 13.974469,3.363922 25.114991,14.823296 l 6.101695,6.276332 13.559322,0.453452 c 15.292208,0.511403 19.741288,0.0095 27.956478,-3.153908 l 5.21411,-2.007774 2.61846,2.538749 c 3.84057,3.723639 8.90385,11.599581 10.62894,16.533309 2.76581,7.910175 2.59994,26.259625 -0.33926,37.530861 -1.53897,5.90163 -5.01108,14.24019 -8.47911,20.36324 -3.96328,6.99747 -13.69727,17.00955 -19.02499,19.56854 -4.37745,2.10256 -11.15575,3.02351 -17.218696,2.33948 l 0,0 z M 50.65831,74.998649 c 6.726761,-3.192057 8.441979,-13.803098 3.232045,-19.994753 -2.175154,-2.585023 -6.271958,-4.698811 -9.106923,-4.698811 -3.094456,0 -7.691854,2.412092 -10.049925,5.27284 -2.440348,2.960564 -3.258846,7.373775 -2.142024,11.549444 0.993927,3.716184 2.411569,5.636473 5.849195,7.92312 2.317268,1.541405 3.22304,1.754479 6.224929,1.464354 1.932185,-0.18674 4.628901,-0.869027 5.992703,-1.516194 l 0,0 z"
     id="path3075"
     inkscape:connector-curvature="0" />
  <path
     style="opacity:0.07000002;fill:#ffffff;fill-opacity:1;fill-rule:nonzero;stroke:none"
     d="m 86.237288,144.20951 c -10.023416,-2.59737 -14.73697,-2.80722 -22.711864,-1.01115 -4.409677,0.99312 -9.15112,1.54429 -13.563541,1.57669 -6.208202,0.0456 -7.160977,-0.12666 -11.227638,-2.02967 -10.715894,-5.01458 -19.784421,-18.55625 -24.448566,-36.50809 -1.393524,-5.36354 -1.584593,-7.660022 -1.579403,-18.983053 0.0048,-10.377033 0.249713,-13.792868 1.259969,-17.569855 3.22397,-12.053278 9.23389,-22.137594 18.317809,-30.73628 7.325298,-6.934005 10.088501,-8.306112 16.709657,-8.297411 8.155629,0.01072 13.485941,3.209111 24.941661,14.965968 l 5.861238,6.015313 13.559322,0.452831 c 15.333658,0.512088 19.777938,0.0063 27.981358,-3.184509 l 5.23898,-2.037756 3.33524,3.58568 c 4.29647,4.619081 7.484,9.6305 9.74232,15.316864 1.70723,4.298728 1.80397,5.170526 1.82037,16.40441 0.019,13.046189 -0.67552,17.920558 -3.86422,27.118648 -5.38858,15.5438 -15.92075,29.35336 -26.25001,34.41845 -3.31069,1.62344 -4.66968,1.86674 -11.22438,2.00948 -6.095082,0.13273 -8.634363,-0.14252 -13.898302,-1.50656 z M 50.65831,74.998649 c 6.726761,-3.192057 8.441979,-13.803098 3.232045,-19.994753 -2.175154,-2.585023 -6.271958,-4.698811 -9.106923,-4.698811 -3.094456,0 -7.691854,2.412092 -10.049925,5.27284 -2.440348,2.960564 -3.258846,7.373775 -2.142024,11.549444 0.993927,3.716184 2.411569,5.636473 5.849195,7.92312 2.317268,1.541405 3.22304,1.754479 6.224929,1.464354 1.932185,-0.18674 4.628901,-0.869027 5.992703,-1.516194 l 0,0 z"
     id="path3077"
     inkscape:connector-curvature="0" />
  <path
     style="opacity:0.07000002;fill:#ffffff;fill-opacity:1;fill-rule:nonzero;stroke:none"
     d="M 86.237288,144.20951 C 76.212917,141.6119 71.50025,141.4022 63.525424,143.19894 c -4.524461,1.01937 -9.046285,1.53397 -13.593665,1.54702 -5.939581,0.017 -7.312651,-0.20873 -10.699762,-1.7594 -8.016904,-3.67026 -14.007097,-10.37669 -19.502179,-21.83402 -1.788387,-3.72881 -4.083702,-9.83051 -5.1007,-13.55932 -1.708,-6.26237 -1.852358,-7.788379 -1.891959,-20 -0.04615,-14.230002 0.381671,-16.964163 4.118858,-26.323451 3.234186,-8.099587 7.02419,-13.690263 14.127034,-20.838943 8.263848,-8.317176 10.974994,-9.78938 18.01066,-9.780135 8.155159,0.01072 12.095061,2.317096 23.684255,13.864527 l 7.118644,7.092991 13.559322,0.464713 c 15.337448,0.525654 19.763428,0.02382 27.981358,-3.172628 l 5.23898,-2.037756 3.33524,3.58568 c 4.30518,4.62844 7.49063,9.641375 9.73305,15.316864 1.69452,4.288749 1.79496,5.196605 1.81486,16.40441 0.0233,13.087915 -0.67777,18.001888 -3.86861,27.118648 -5.47299,15.63718 -15.91313,29.3593 -26.16009,34.38383 -3.39132,1.66291 -4.70458,1.90057 -11.29513,2.0441 -6.095082,0.13273 -8.634363,-0.14252 -13.898302,-1.50656 l 0,0 z M 50.65831,74.998649 c 8.856841,-4.202846 8.183897,-18.636444 -1.089465,-23.367361 -3.342492,-1.705213 -6.243174,-1.67866 -9.897988,0.09061 -6.017049,2.912803 -8.800582,8.970072 -7.079374,15.405476 0.993927,3.716184 2.411569,5.636473 5.849195,7.92312 2.317268,1.541405 3.22304,1.754479 6.224929,1.464354 1.932185,-0.18674 4.628901,-0.869027 5.992703,-1.516194 l 0,0 z"
     id="path3079"
     inkscape:connector-curvature="0" />
  <path
     style="opacity:0.07000002;fill:#ffffff;fill-opacity:1;fill-rule:nonzero;stroke:none"
     d="m 86.237288,144.20951 c -9.958491,-2.58054 -14.732313,-2.80132 -22.711864,-1.05038 -7.619416,1.67191 -17.468447,2.03719 -21.800523,0.80854 -7.389275,-2.09573 -15.497932,-10.04536 -20.851173,-20.44225 -6.44492,-12.5171 -8.970404,-24.853034 -8.327831,-40.677962 0.73395,-18.075303 7.014449,-31.95333 19.966977,-44.121059 7.018154,-6.592921 10.04285,-8.082331 16.41361,-8.082331 7.676071,0 11.659338,2.243184 22.314313,12.566344 l 8.669061,8.399092 13.502698,0.464065 c 15.276854,0.52504 19.712384,0.021 27.924734,-3.173275 l 5.23898,-2.037756 3.33524,3.58568 c 7.84429,8.433297 11.11126,16.045324 11.69103,27.24007 0.9093,17.557489 -2.48367,32.090032 -10.79321,46.228792 -4.52132,7.69308 -13.32171,16.70652 -19.14831,19.6119 -3.68164,1.83581 -4.77577,2.04362 -11.52543,2.18893 -6.091231,0.13114 -8.637692,-0.14523 -13.898302,-1.5084 l 0,0 z M 50.65831,74.998649 c 6.641646,-3.151667 8.397753,-13.855657 3.272476,-19.946704 -0.969302,-1.151949 -2.998074,-2.724864 -4.508383,-3.495366 -9.408836,-4.80003 -20.505479,6.441297 -16.523367,16.738807 1.171742,3.030057 2.509924,4.654838 5.541642,6.728498 2.347797,1.605866 3.183492,1.807664 6.224929,1.503157 1.932185,-0.193449 4.628901,-0.881225 5.992703,-1.528392 z"
     id="path3081"
     inkscape:connector-curvature="0" />
  <path
     style="opacity:0.07000002;fill:#ffffff;fill-opacity:1;fill-rule:nonzero;stroke:none"
     d="m 86.237288,144.19822 c -9.417789,-2.41477 -14.950739,-2.77843 -21.041748,-1.38299 -11.090832,2.54087 -21.549283,2.51969 -26.624392,-0.0539 -12.655266,-6.41757 -23.483497,-25.49734 -25.648717,-45.194059 -2.708074,-24.634987 3.746121,-43.930014 19.742174,-59.01988 2.618948,-2.470582 6.335759,-5.289592 8.259581,-6.264467 3.045821,-1.543434 4.162752,-1.74196 8.642769,-1.536186 7.660466,0.351856 11.341063,2.477762 21.785795,12.583438 l 8.557108,8.279328 13.502698,0.464065 c 15.283394,0.525266 19.720014,0.02043 27.924734,-3.177511 l 5.23898,-2.041991 3.62086,3.928898 c 7.57012,8.214159 10.83366,15.912256 11.41142,26.917501 1.22706,23.372834 -6.26029,44.566774 -20.73961,58.706314 -3.17314,3.09868 -6.78275,5.8597 -9.24133,7.06879 -3.59977,1.7703 -4.83778,2.00505 -11.49202,2.17905 -6.13001,0.16031 -8.6042,-0.099 -13.898302,-1.4564 l 0,0 z M 50.65831,74.998649 c 1.363802,-0.647166 3.291397,-2.403315 4.283546,-3.902553 1.504974,-2.274169 1.803907,-3.482767 1.803907,-7.293268 0,-3.993684 -0.259015,-4.935914 -2.062096,-7.501386 -4.377312,-6.228156 -10.938759,-7.610761 -16.799137,-3.539856 -8.25266,5.7327 -7.639884,17.031832 1.234114,22.756114 2.437321,1.572224 7.624292,1.338916 11.539666,-0.519051 z"
     id="path3083"
     inkscape:connector-curvature="0" />
  <path
     style="opacity:0.07000002;fill:#ffffff;fill-opacity:1;fill-rule:nonzero;stroke:none"
     d="M 86.237288,144.19822 C 76.920319,141.8093 71.277104,141.42365 65.353251,142.771 53.95394,145.36372 43.543654,145.29144 38.259597,142.58289 25.855721,136.2248 15.275223,117.46473 12.98145,97.762712 11.918056,88.628854 12.510952,76.085416 14.343393,68.949153 18.007444,54.67986 28.578348,39.749795 39.756727,33.056035 c 3.542965,-2.121575 4.573419,-2.411967 8.558829,-2.411967 8.319304,0 12.596698,2.437054 24.144139,13.756173 l 7.578339,7.428497 16.489458,0.08563 L 113.01695,52 l 6.10169,-2.261713 c 3.35594,-1.243941 6.533,-2.311738 7.06015,-2.372881 1.61403,-0.187209 8.89391,9.060249 11.70883,14.873454 2.14494,4.429613 2.80952,6.771587 3.43268,12.09675 1.02252,8.737992 -0.0992,22.802586 -2.46707,30.93317 -4.42061,15.17906 -13.08211,28.50102 -23.04428,35.44363 -6.14471,4.28223 -7.43341,4.68703 -15.67336,4.92335 -6.168485,0.17691 -8.570973,-0.0716 -13.898302,-1.43754 l 0,0 z M 50.65831,74.998649 c 1.363802,-0.647166 3.291397,-2.403315 4.283546,-3.902553 1.504974,-2.274169 1.803907,-3.482767 1.803907,-7.293268 0,-3.993684 -0.259015,-4.935914 -2.062096,-7.501386 -4.377312,-6.228156 -10.938759,-7.610761 -16.799137,-3.539856 -8.205398,5.69987 -7.587897,17.088256 1.234114,22.760402 2.438121,1.5676 7.629481,1.332165 11.539666,-0.523339 l 0,0 z"
     id="path3085"
     inkscape:connector-curvature="0" />
  <path
     style="opacity:0.07000002;fill:#ffffff;fill-opacity:1;fill-rule:nonzero;stroke:none"
     d="m 86.237288,144.19822 c -9.8317,-2.5209 -14.71756,-2.75179 -22.818362,-1.07836 -9.358917,1.93333 -18.503205,1.91996 -23.766375,-0.0347 -3.112881,-1.1561 -5.044992,-2.59217 -9.349493,-6.94916 -7.523065,-7.6148 -12.462006,-16.69705 -15.614568,-28.71371 -2.781567,-10.602538 -2.929638,-28.221929 -0.323354,-38.476965 2.79799,-11.009354 9.406288,-22.050187 18.021258,-30.109068 6.646793,-6.21775 10.470942,-8.178028 15.969045,-8.185817 8.267884,-0.01171 12.566901,2.44058 24.104256,13.749811 l 7.578339,7.428497 16.489458,0.08563 L 113.01695,52 l 6.10169,-2.261713 c 3.35594,-1.243941 6.533,-2.311738 7.06015,-2.372881 1.61564,-0.187397 8.89514,9.062778 11.71517,14.88666 2.22359,4.592121 2.79165,6.6602 3.42162,12.456462 0.98134,9.029171 -0.0984,22.405084 -2.46698,30.560252 -4.38036,15.08211 -13.12441,28.53373 -23.03965,35.44363 -6.14471,4.28223 -7.43341,4.68703 -15.67336,4.92335 -6.168485,0.17691 -8.570973,-0.0716 -13.898302,-1.43754 z M 50.65831,74.998649 c 1.363802,-0.647166 3.291397,-2.403315 4.283546,-3.902553 1.504974,-2.274169 1.803907,-3.482767 1.803907,-7.293268 0,-3.977016 -0.264067,-4.947365 -2.042966,-7.507139 -4.213678,-6.063334 -11.10659,-7.500993 -16.847132,-3.513816 -3.126396,2.171484 -5.857725,6.857472 -5.851884,10.039747 0.0094,5.124546 2.689163,9.929537 7.085969,12.705642 2.47223,1.560945 7.665189,1.323658 11.56856,-0.528613 z"
     id="path3087"
     inkscape:connector-curvature="0" />
  <path
     style="opacity:0.07000002;fill:#ffffff;fill-opacity:1;fill-rule:nonzero;stroke:none"
     d="m 86.576271,144.18372 c -10.529858,-2.51098 -15.129213,-2.72228 -23.157345,-1.06386 -4.187444,0.86502 -9.425007,1.42251 -13.364398,1.42251 -8.719956,0 -12.602052,-1.46783 -18.552801,-7.01486 -7.866311,-7.33264 -13.351317,-17.32723 -16.958529,-30.90123 -1.556919,-5.85871 -1.725891,-7.744911 -1.735405,-19.372043 -0.0091,-11.074606 0.194109,-13.642092 1.448529,-18.305084 3.896586,-14.484577 14.998782,-29.913396 26.110966,-36.286637 2.903711,-1.665383 4.259178,-2.006804 7.988151,-2.012086 8.267884,-0.01171 12.566901,2.44058 24.104256,13.749811 l 7.578339,7.428497 16.489458,0.08563 L 113.01695,52 l 6.93283,-2.495463 6.93282,-2.495464 2.80368,3.17343 c 10.38133,11.750442 13.29874,21.853784 11.62278,40.251026 -0.9074,9.960631 -2.48482,16.378331 -6.06662,24.681911 -4.69106,10.87518 -12.68557,21.17008 -20.64404,26.5843 -6.5298,4.44228 -16.211153,5.30047 -28.022129,2.48398 z M 50.65831,74.998649 c 1.363802,-0.647166 3.291397,-2.403315 4.283546,-3.902553 1.504974,-2.274169 1.803907,-3.482767 1.803907,-7.293268 0,-3.977016 -0.264067,-4.947365 -2.042966,-7.507139 -4.213678,-6.063334 -11.10659,-7.500993 -16.847132,-3.513816 -3.126396,2.171484 -5.857725,6.857472 -5.851884,10.039747 0.0094,5.124546 2.689163,9.929537 7.085969,12.705642 2.47223,1.560945 7.665189,1.323658 11.56856,-0.528613 z"
     id="path3089"
     inkscape:connector-curvature="0" />
  <path
     style="opacity:0.07000002;fill:#ffffff;fill-opacity:1;fill-rule:nonzero;stroke:none"
     d="m 86.576271,144.22529 c -10.443057,-2.55431 -15.076754,-2.77465 -23.2936,-1.10762 -4.168095,0.84562 -9.600165,1.4247 -13.364398,1.4247 -8.570147,0 -12.494863,-1.49492 -18.416546,-7.01486 -7.87405,-7.33986 -13.372344,-17.36468 -16.948329,-30.90123 -1.540595,-5.83177 -1.716955,-7.798368 -1.737236,-19.372043 -0.01946,-11.106359 0.178733,-13.628722 1.438329,-18.305084 3.903329,-14.491453 15.001876,-29.91412 26.112797,-36.286637 2.903711,-1.665383 4.259178,-2.006804 7.988151,-2.012086 8.267884,-0.01171 12.566901,2.44058 24.104256,13.749811 l 7.578339,7.428497 16.489458,0.08563 L 113.01695,52 l 6.93283,-2.495463 6.93282,-2.495464 2.80368,3.17343 c 6.9164,7.828561 10.46816,14.975837 11.53487,23.211909 0.8645,6.674779 0.33405,18.703005 -1.17638,26.675138 -3.5108,18.5301 -16.44286,37.75972 -29.38013,43.68746 -5.51416,2.52654 -14.925365,2.70949 -24.088369,0.46828 z M 50.65831,74.998649 c 1.363802,-0.647166 3.291397,-2.403315 4.283546,-3.902553 1.504974,-2.274169 1.803907,-3.482767 1.803907,-7.293268 0,-3.977016 -0.264067,-4.947365 -2.042966,-7.507139 -4.213678,-6.063334 -11.10659,-7.500993 -16.847132,-3.513816 -3.126396,2.171484 -5.857725,6.857472 -5.851884,10.039747 0.0094,5.124546 2.689163,9.929537 7.085969,12.705642 2.47223,1.560945 7.665189,1.323658 11.56856,-0.528613 z"
     id="path3091"
     inkscape:connector-curvature="0" />
  <path
     style="opacity:0.07000002;fill:#ffffff;fill-opacity:1;fill-rule:nonzero;stroke:none"
     d="m 41.830508,76.0993 c -4.733026,-1.103065 -7.946311,-4.479569 -9.080852,-9.542116 -1.132451,-5.053225 0.267005,-9.199498 4.300281,-12.740761 8.059178,-7.076053 19.500653,-1.16531 19.447029,10.046465 -0.02085,4.360357 -0.672732,6.113101 -3.3357,8.968898 -2.429516,2.605443 -7.677688,4.118888 -11.330758,3.267514 z"
     id="path3093"
     inkscape:connector-curvature="0" />
  <path
     style="opacity:0.07000002;fill:#ffffff;fill-opacity:1;fill-rule:nonzero;stroke:none"
     d="m 39.717906,75.448735 c -9.200964,-4.178328 -9.956665,-17.146127 -1.32864,-22.799426 6.740874,-4.416791 16.042687,-0.472165 17.831228,7.5617 1.754008,7.878758 -1.989575,14.224523 -9.318817,15.796364 -4.284379,0.918834 -3.857109,0.952061 -7.183771,-0.558638 z"
     id="path3095"
     inkscape:connector-curvature="0" />
  <path
     style="opacity:0.07000002;fill:#ffffff;fill-opacity:1;fill-rule:nonzero;stroke:none"
     d="m 39.79661,75.681762 c -3.557542,-1.846459 -5.771556,-4.520445 -6.869246,-8.296367 -1.204046,-4.141773 -0.834237,-7.468903 1.197632,-10.77495 1.263549,-2.055916 5.051765,-4.923787 6.868016,-5.199435 0.460623,-0.06991 1.238648,-0.377579 1.728944,-0.683714 1.250797,-0.780982 5.476938,0.116823 8.079472,1.716408 4.119845,2.532165 5.986233,6.597129 5.773968,12.57561 -0.198061,5.578435 -3.863613,9.742014 -9.673719,10.988059 -4.414019,0.946637 -4.677073,0.934582 -7.105067,-0.325611 z"
     id="path3097"
     inkscape:connector-curvature="0" />
  <path
     style="opacity:0.07000002;fill:#ffffff;fill-opacity:1;fill-rule:nonzero;stroke:none"
     d="m 39.784005,75.835502 c -6.830636,-3.091555 -9.684171,-12.72429 -5.685824,-19.193751 1.334758,-2.159683 5.097003,-4.962689 7.0447,-5.248551 0.54305,-0.0797 1.199584,-0.357134 1.458964,-0.616515 1.697954,-1.697954 8.816095,1.123185 11.407995,4.521341 3.115534,4.084675 3.56739,10.706009 1.037757,15.206885 -0.864257,1.537736 -1.827254,2.637743 -2.139995,2.444458 -0.31274,-0.193284 -0.568619,-0.03617 -0.568619,0.349142 0,2.238318 -9.135985,4.084432 -12.554978,2.536991 z"
     id="path3099"
     inkscape:connector-curvature="0" />
  <path
     style="opacity:0.07000002;fill:#ffffff;fill-opacity:1;fill-rule:nonzero;stroke:none"
     d="m 39.08975,75.482763 c -6.305339,-3.845116 -8.691322,-11.27168 -5.643847,-17.566922 2.683707,-5.5438 8.894864,-8.586562 14.251571,-6.981654 2.86018,0.856931 8.352706,5.760058 7.677074,6.853254 -0.222048,0.35928 -0.04799,0.653237 0.386789,0.653237 0.434782,0 0.618654,0.447857 0.408604,0.995237 -0.210049,0.547381 -0.09015,1.175556 0.266448,1.395944 0.888682,0.549235 0.814954,4.37594 -0.138116,7.168668 -0.895332,2.623537 -2.916686,5.494055 -3.475375,4.935366 -0.205731,-0.205732 -0.700701,0.236283 -1.099934,0.982255 -0.47011,0.87841 -1.934533,1.615525 -4.156096,2.091965 -4.723003,1.012903 -6.090909,0.927807 -8.477118,-0.52735 l 0,0 z"
     id="path3101"
     inkscape:connector-curvature="0" />
  <path
     style="opacity:0.07000002;fill:#ffffff;fill-opacity:1;fill-rule:nonzero;stroke:none"
     d="m 39.118644,75.47749 c -6.5088,-4.042456 -8.816588,-11.358571 -5.59322,-17.731548 3.103162,-6.135317 10.419377,-8.983827 15.896979,-6.189363 2.997049,1.52898 6.543633,5.273814 5.93195,6.263538 -0.210941,0.341308 -0.0278,0.620561 0.406984,0.620561 0.434782,0 0.618654,0.447857 0.408604,0.995237 -0.210049,0.547381 -0.05177,1.199273 0.351728,1.44865 1.155832,0.714343 0.170727,7.442404 -1.481007,10.114966 -0.803857,1.300667 -1.725278,2.201862 -2.047602,2.002653 -0.322325,-0.199207 -0.896441,0.217784 -1.275813,0.926647 -0.713218,1.332661 -5.28721,2.818891 -8.661532,2.814397 -1.046745,-0.0014 -2.818427,-0.570976 -3.937071,-1.265738 z"
     id="path3103"
     inkscape:connector-curvature="0" />
  <path
     style="opacity:0.07000002;fill:#ffffff;fill-opacity:1;fill-rule:nonzero;stroke:none"
     d="m 38.437006,75.004584 c -3.445928,-2.338469 -4.827915,-4.145152 -5.798948,-7.581013 -1.847161,-6.535916 0.762716,-12.49169 6.833031,-15.593063 3.670772,-1.875427 6.69516,-1.935095 10.097756,-0.19922 2.876479,1.46747 6.384349,5.219882 5.785508,6.188829 -0.210941,0.341308 -0.0278,0.620561 0.406984,0.620561 0.434782,0 0.614904,0.457627 0.400272,1.016949 -0.214632,0.559322 -0.05236,1.016949 0.36061,1.016949 1.178112,0 0.218439,7.777629 -1.275245,10.335168 -0.708992,1.213963 -1.640199,2.207205 -2.06935,2.207205 -0.429149,0 -1.174761,0.509679 -1.656914,1.13262 -0.988241,1.276804 -5.237305,2.586726 -8.409153,2.592413 -1.15983,0.0021 -3.263378,-0.779749 -4.674551,-1.737398 z"
     id="path3105"
     inkscape:connector-curvature="0" />
  <path
     style="opacity:0.07000002;fill:#ffffff;fill-opacity:1;fill-rule:nonzero;stroke:none"
     d="M 40.135593,76.288858 C 35.507862,74.322932 32,68.892559 32,63.694492 c 0,-3.89792 0.91786,-6.394102 3.26347,-8.875226 4.016565,-4.248615 9.525531,-5.586771 14.087571,-3.421942 2.649147,1.257103 6.596892,5.462359 6.013703,6.405978 -0.216656,0.350557 -0.03819,0.637376 0.396593,0.637376 0.434782,0 0.614904,0.457627 0.400272,1.016949 -0.214632,0.559322 -0.09473,1.016949 0.266449,1.016949 0.361178,0 0.656688,1.46078 0.656688,3.246177 0,3.503665 -2.429064,9.296196 -3.898305,9.296196 -0.466102,0 -0.771187,0.256597 -0.677966,0.570215 0.51097,1.719039 -9.526649,3.910814 -12.372882,2.701694 z"
     id="path3107"
     inkscape:connector-curvature="0" />
  <path
     style="opacity:0.07000002;fill:#ffffff;fill-opacity:1;fill-rule:nonzero;stroke:none"
     d="m 38.349715,75.490558 c -2.714596,-1.71346 -5.2709,-5.136845 -6.351342,-8.505677 -1.749554,-5.455128 1.66994,-13.031055 7.029727,-15.574441 3.163449,-1.501155 8.040334,-1.400639 11.239908,0.231662 3.029219,1.545392 5.67239,4.591343 5.154759,5.940267 -0.220863,0.575559 -0.06092,0.746121 0.420608,0.448523 0.528493,-0.326627 0.654647,-0.01235 0.394443,0.982673 -0.237503,0.908216 -0.118521,1.299702 0.313805,1.03251 0.460734,-0.284749 0.604306,1.198708 0.424311,4.384172 -0.27186,4.811262 -1.970212,8.586702 -3.86266,8.586702 -0.42586,0 -0.8153,0.305085 -0.865422,0.677966 -0.19903,1.480667 -3.004929,2.579665 -7.279817,2.851318 -3.641754,0.23142 -4.896212,0.03132 -6.61832,-1.055675 l 0,0 z"
     id="path3109"
     inkscape:connector-curvature="0" />
  <path
     style="opacity:0.07000002;fill:#ffffff;fill-opacity:1;fill-rule:nonzero;stroke:none"
     d="M 38.038837,75.845668 C 31.458634,72.370435 28.895352,63.213639 32.64732,56.585589 c 4.846446,-8.561501 16.372271,-9.260737 22.645341,-1.373822 1.761858,2.215125 2.049167,3.195706 2.284389,7.796611 0.334416,6.541086 -0.809188,9.087619 -5.484178,12.211961 -4.239664,2.833408 -9.4354,3.06459 -14.054035,0.625329 z"
     id="path3111"
     inkscape:connector-curvature="0" />
  <path
     style="opacity:0.07000002;fill:#ffffff;fill-opacity:1;fill-rule:nonzero;stroke:none"
     d="M 41.056403,78.840005 C 37.477212,77.937573 34.254889,75.51394 32.035147,72.054772 25.362013,61.655593 32.322125,48.271186 44.403005,48.271186 c 4.870893,0 6.601759,0.699679 9.906748,4.004668 3.741861,3.741861 4.859382,6.222418 5.412627,12.014381 0.426409,4.464098 0.346977,5.035139 -0.748764,5.382913 -1.599617,0.507699 -3.360129,3.949317 -2.785809,5.445971 0.288337,0.751392 0.186878,1.008865 -0.283092,0.718407 -0.40287,-0.248987 -2.227799,0.298347 -4.055398,1.216298 -3.810463,1.913886 -7.72016,2.560924 -10.792914,1.786181 l 0,0 z"
     id="path3113"
     inkscape:connector-curvature="0" />
  <path
     style="opacity:0;fill:#ffffff;fill-opacity:1;fill-rule:nonzero;stroke:none"
     d="m 85.677797,144.21861 c -11.055895,-2.61284 -13.74549,-2.73572 -22.179101,-1.01332 -4.604589,0.94039 -9.913135,1.52252 -13.957159,1.53051 -5.864788,0.0116 -6.971822,-0.1956 -10.922298,-2.04425 -7.542722,-3.52966 -13.823922,-10.76284 -19.18801,-22.09615 -4.400066,-9.29651 -6.411212,-17.84971 -6.883166,-29.273366 -0.918493,-22.232195 4.315254,-36.680357 18.434988,-50.891208 8.277692,-8.331109 10.965639,-9.786758 18.071866,-9.786758 7.70072,0 11.598836,2.217945 22.39,12.739434 l 8.626514,8.410935 16.133776,0.102781 L 112.33898,52 l 7.11865,-2.542731 7.11864,-2.542731 3.33524,3.55968 c 4.2928,4.58166 7.48522,9.599102 9.72905,15.290864 1.68753,4.280622 1.79153,5.217844 1.82038,16.40441 0.0338,13.085444 -0.66006,17.946938 -3.87013,27.118648 -5.47299,15.63718 -15.91313,29.3593 -26.16009,34.38383 -3.39304,1.66375 -4.70125,1.90019 -11.29513,2.04135 -5.94719,0.12731 -8.8754,-0.17542 -14.457793,-1.49471 l 0,0 z"
     id="path3115"
     inkscape:connector-curvature="0" />
  <path
     style="opacity:0;fill:#ffffff;fill-opacity:1;fill-rule:nonzero;stroke:none"
     d="m 86.576271,144.23142 c -10.551238,-2.57122 -14.454735,-2.76036 -23.050847,-1.11693 -9.922572,1.89704 -18.689059,1.89934 -23.748825,0.006 -7.4114,-2.77283 -16.653953,-13.53817 -21.3895,-24.91347 -1.165471,-2.79958 -2.885318,-8.01096 -3.821882,-11.58085 -1.509377,-5.75325 -1.708729,-7.91569 -1.754631,-19.03306 -0.03985,-9.652371 0.212892,-13.609159 1.096888,-17.172139 2.878243,-11.60086 9.82111,-23.469146 18.4355,-31.514036 6.591688,-6.155909 10.752048,-8.262977 16.315072,-8.262977 7.924151,0 12.259378,2.507066 23.824407,13.77768 l 7.6011,7.407594 16.466698,0.08533 L 113.01695,52 l 6.93283,-2.495463 6.93282,-2.495464 2.80368,3.17343 c 6.9164,7.828561 10.46816,14.975837 11.53487,23.211909 0.8645,6.674779 0.33405,18.703005 -1.17638,26.675138 -3.52088,18.58326 -16.32571,37.61492 -29.38013,43.6673 -5.4904,2.5455 -14.881006,2.7383 -24.088369,0.49457 z M 51.511632,74.247585 c 3.34371,-2.49644 4.476862,-4.723233 4.773406,-9.380376 0.339649,-5.334095 -0.516211,-7.653998 -3.977288,-10.780874 -4.628746,-4.181793 -9.739663,-4.384295 -14.772251,-0.585297 -3.444378,2.600091 -4.852079,5.39544 -4.854999,9.640844 -0.0032,4.669983 1.911937,8.7379 5.264001,11.181127 2.304632,1.679783 2.94337,1.817143 7.168343,1.541548 3.16418,-0.206399 5.197779,-0.720289 6.398788,-1.616972 l 0,0 z"
     id="path3117"
     inkscape:connector-curvature="0" />
  <path
     style="opacity:0;fill:#ffffff;fill-opacity:1;fill-rule:nonzero;stroke:none"
     d="m 86.576271,144.23142 c -10.551238,-2.57122 -14.454735,-2.76036 -23.050847,-1.11693 -9.922572,1.89704 -18.689059,1.89934 -23.748825,0.006 -7.4114,-2.77283 -16.653953,-13.53817 -21.3895,-24.91347 -1.165471,-2.79958 -2.885318,-8.01096 -3.821882,-11.58085 -1.509377,-5.75325 -1.708729,-7.91569 -1.754631,-19.03306 -0.03985,-9.652371 0.212892,-13.609159 1.096888,-17.172139 2.878243,-11.60086 9.82111,-23.469146 18.4355,-31.514036 6.591688,-6.155909 10.752048,-8.262977 16.315072,-8.262977 7.924151,0 12.259378,2.507066 23.824407,13.77768 l 7.6011,7.407594 16.466698,0.08533 L 113.01695,52 l 6.93283,-2.495463 6.93282,-2.495464 2.80368,3.17343 c 6.9164,7.828561 10.46816,14.975837 11.53487,23.211909 0.8645,6.674779 0.33405,18.703005 -1.17638,26.675138 -3.52088,18.58326 -16.32571,37.61492 -29.38013,43.6673 -5.4904,2.5455 -14.881006,2.7383 -24.088369,0.49457 z M 51.511632,74.247585 c 3.34371,-2.49644 4.476862,-4.723233 4.773406,-9.380376 0.339649,-5.334095 -0.516211,-7.653998 -3.977288,-10.780874 -4.628746,-4.181793 -9.739663,-4.384295 -14.772251,-0.585297 -3.444378,2.600091 -4.852079,5.39544 -4.854999,9.640844 -0.0032,4.669983 1.911937,8.7379 5.264001,11.181127 2.304632,1.679783 2.94337,1.817143 7.168343,1.541548 3.16418,-0.206399 5.197779,-0.720289 6.398788,-1.616972 l 0,0 z"
     id="path3119"
     inkscape:connector-curvature="0" />
  <path
     style="opacity:0;fill:#ffffff;fill-opacity:1;fill-rule:nonzero;stroke:none"
     d="m 86.576271,144.23142 c -10.551238,-2.57122 -14.454735,-2.76036 -23.050847,-1.11693 -9.922572,1.89704 -18.689059,1.89934 -23.748825,0.006 -7.4114,-2.77283 -16.653953,-13.53817 -21.3895,-24.91347 -1.165471,-2.79958 -2.885318,-8.01096 -3.821882,-11.58085 -1.509377,-5.75325 -1.708729,-7.91569 -1.754631,-19.03306 -0.03985,-9.652371 0.212892,-13.609159 1.096888,-17.172139 2.878243,-11.60086 9.82111,-23.469146 18.4355,-31.514036 6.591688,-6.155909 10.752048,-8.262977 16.315072,-8.262977 7.924151,0 12.259378,2.507066 23.824407,13.77768 l 7.6011,7.407594 16.466698,0.08533 L 113.01695,52 l 6.93283,-2.495463 6.93282,-2.495464 2.80368,3.17343 c 6.9164,7.828561 10.46816,14.975837 11.53487,23.211909 0.8645,6.674779 0.33405,18.703005 -1.17638,26.675138 -3.52088,18.58326 -16.32571,37.61492 -29.38013,43.6673 -5.4904,2.5455 -14.881006,2.7383 -24.088369,0.49457 z M 51.511632,74.247585 c 3.34371,-2.49644 4.476862,-4.723233 4.773406,-9.380376 0.339649,-5.334095 -0.516211,-7.653998 -3.977288,-10.780874 -4.628746,-4.181793 -9.739663,-4.384295 -14.772251,-0.585297 -3.444378,2.600091 -4.852079,5.39544 -4.854999,9.640844 -0.0032,4.669983 1.911937,8.7379 5.264001,11.181127 2.304632,1.679783 2.94337,1.817143 7.168343,1.541548 3.16418,-0.206399 5.197779,-0.720289 6.398788,-1.616972 l 0,0 z"
     id="path3121"
     inkscape:connector-curvature="0" />
  <path
     style="opacity:0;fill:#ffffff;fill-opacity:1;fill-rule:nonzero;stroke:none"
     d="m 40.135593,76.254757 c -2.641691,-0.997396 -6.090499,-4.519091 -7.154854,-7.306065 -3.826992,-10.020838 4.132995,-20.251725 14.276064,-18.348874 2.935166,0.550641 7.628861,4.578271 8.914635,7.649593 1.92894,4.607649 0.46943,12.245706 -2.91406,15.250156 -2.983396,2.649177 -9.678979,4.055053 -13.121785,2.75519 z"
     id="path3123"
     inkscape:connector-curvature="0" />
  <path
     style="opacity:0;fill:#ffffff;fill-opacity:1;fill-rule:nonzero;stroke:none"
     d="m 40.135593,76.254757 c -2.641691,-0.997396 -6.090499,-4.519091 -7.154854,-7.306065 -3.826992,-10.020838 4.132995,-20.251725 14.276064,-18.348874 2.935166,0.550641 7.628861,4.578271 8.914635,7.649593 1.92894,4.607649 0.46943,12.245706 -2.91406,15.250156 -2.983396,2.649177 -9.678979,4.055053 -13.121785,2.75519 z"
     id="path3125"
     inkscape:connector-curvature="0" />
  <path
     style="opacity:0;fill:#ffffff;fill-opacity:1;fill-rule:nonzero;stroke:none"
     d="m 40.135593,76.254757 c -2.641691,-0.997396 -6.090499,-4.519091 -7.154854,-7.306065 -3.826992,-10.020838 4.132995,-20.251725 14.276064,-18.348874 2.935166,0.550641 7.628861,4.578271 8.914635,7.649593 1.92894,4.607649 0.46943,12.245706 -2.91406,15.250156 -2.983396,2.649177 -9.678979,4.055053 -13.121785,2.75519 z"
     id="path3127"
     inkscape:connector-curvature="0" />
  <path
     style="opacity:0.84840006;fill:#ffffff;fill-opacity:1;fill-rule:nonzero;stroke:none"
     d="m 40.135593,76.254757 c -2.641691,-0.997396 -6.090499,-4.519091 -7.154854,-7.306065 -3.826992,-10.020838 4.132995,-20.251725 14.276064,-18.348874 2.935166,0.550641 7.628861,4.578271 8.914635,7.649593 1.92894,4.607649 0.46943,12.245706 -2.91406,15.250156 -2.983396,2.649177 -9.678979,4.055053 -13.121785,2.75519 z"
     id="path3129"
     inkscape:connector-curvature="0" />
  <path
     style="opacity:0.84840004;fill:#ffffff;fill-opacity:1;fill-rule:nonzero;stroke:none"
     d="m 86.576271,144.22529 c -10.443057,-2.55431 -15.076754,-2.77465 -23.2936,-1.10762 -9.418662,1.91085 -18.403912,1.91202 -23.506072,0.003 -7.4114,-2.77329 -16.653953,-13.53863 -21.3895,-24.91393 -1.165471,-2.79958 -2.885318,-8.01096 -3.821882,-11.58085 -1.509377,-5.75325 -1.708729,-7.91569 -1.754631,-19.03306 -0.03985,-9.652371 0.212892,-13.609159 1.096888,-17.172139 2.849492,-11.484979 8.894416,-21.972309 17.66755,-30.651408 6.885656,-6.811853 11.216973,-9.125605 17.083022,-9.125605 7.922662,0 12.259933,2.507619 23.815742,13.769213 l 7.592436,7.399127 16.475362,0.0938 16.475364,0.0938 6.95857,-2.486209 6.95857,-2.486209 3.21092,3.695889 c 4.36108,5.019757 7.92506,11.020358 9.75918,16.43129 1.32797,3.917735 1.52592,5.878673 1.51567,15.014731 -0.0168,14.993195 -1.97048,24.395398 -7.3959,35.593218 -5.56228,11.48031 -14.4016,21.55496 -22.3414,25.46372 -4.0448,1.99124 -5.22149,2.24255 -11.41808,2.43857 -5.560331,0.1759 -8.231612,-0.10507 -13.688209,-1.43971 z"
     id="path3131"
     inkscape:connector-curvature="0" />
  <path
     style="opacity:0.84840004;fill:#ffffff;fill-opacity:1;fill-rule:nonzero;stroke:none"
     d="M 88.271186,144.52242 C 75.063988,141.60044 72.892182,141.48548 62.779533,143.17305 51.357942,145.07906 43.563809,144.8616 38.554461,142.49716 29.086919,138.02843 19.957668,124.83149 14.999832,108.4474 13.745938,104.30367 13.46095,101.38147 13.197437,89.966102 13.016809,82.1413 13.177376,74.829786 13.577098,72.677966 16.10567,59.065953 25.953751,43.196329 36.758204,35.322931 c 4.947344,-3.605218 7.396597,-4.560682 11.851965,-4.623504 7.343585,-0.103546 12.801056,3.048752 23.985441,13.854264 l 7.481902,7.22845 16.808698,0.10893 L 113.69492,52 l 6.60989,-2.512999 6.6099,-2.513 3.22061,3.87598 c 4.78142,5.754402 7.56087,10.39854 9.41606,15.733138 1.48954,4.283151 1.65852,5.861905 1.65189,15.43304 -0.0107,15.509786 -1.95694,25.018941 -7.31032,35.718171 -5.43755,10.86746 -13.2261,20.12285 -20.74051,24.64664 -6.05761,3.64677 -14.710976,4.39153 -24.881254,2.14145 z"
     id="path3133"
     inkscape:connector-curvature="0" />
  <path
     style="opacity:0.98999999999999999;fill:#ffffff;fill-opacity:1;fill-rule:nonzero;stroke:none"
     d="M 92,48.659292 C 91.627119,48.506907 90.177966,48.190877 88.779661,47.957003 87.381356,47.72313 86.241208,47.31679 86.246,47.054025 c 0.01255,-0.688477 8.224561,-6.043773 11.655537,-7.600926 1.601612,-0.726894 3.561103,-1.328325 4.354433,-1.336515 0.79333,-0.0082 1.83491,-0.487828 2.31464,-1.065864 0.71758,-0.864633 0.68884,-1.234366 -0.1621,-2.085306 -1.89335,-1.893358 -8.732671,0.696776 -16.645798,6.303969 -4.905163,3.475769 -5.110526,3.192186 -2.891362,-3.992634 4.214931,-13.646356 16.55019,-22.895857 30.51848,-22.884049 5.27572,0.0045 11.20449,1.196096 20.05274,4.030443 3.6068,1.155362 7.89248,2.283593 9.52373,2.50718 1.63125,0.223588 2.9659,0.538899 2.9659,0.700693 0,1.112238 -4.81023,6.862453 -8.95245,10.701892 -8.18321,7.585035 -16.66658,12.660629 -25.10291,15.019055 C 110.57845,48.274047 93.547681,49.291782 92,48.659292 z"
     id="path3135"
     inkscape:connector-curvature="0" />
  <path
     style="opacity:0.98999999;fill:#ffffff;fill-opacity:1;fill-rule:nonzero;stroke:none"
     d="m 94.372881,48.547652 c -0.559322,-0.104661 -2.466101,-0.380918 -4.237288,-0.613904 -1.771186,-0.232985 -3.220339,-0.688328 -3.220339,-1.011872 0,-0.95325 9.676482,-6.703615 13.287116,-7.896027 4.40558,-1.454945 5.55265,-2.513848 4.32524,-3.992787 -1.65414,-1.993116 -8.321318,0.361176 -16.256424,5.740411 -1.677966,1.137499 -3.399773,2.069486 -3.826239,2.071082 -1.222069,0.0046 0.16021,-5.060847 2.899572,-10.625604 5.952886,-12.092734 19.319201,-19.088486 32.791071,-17.16242 6.23818,0.891867 26.66743,6.437272 26.96116,7.318451 0.35453,1.063594 -9.51936,11.180808 -14.72313,15.085953 -9.46228,7.100923 -16.77265,9.971177 -26.7637,10.508173 -3.75664,0.201912 -7.592971,0.4575 -8.525174,0.567975 -0.932204,0.110474 -2.152543,0.11523 -2.711865,0.01057 l 0,0 z"
     id="path3137"
     inkscape:connector-curvature="0" />
  <path
     style="opacity:0.98999999;fill:#ffffff;fill-opacity:1;fill-rule:nonzero;stroke:none"
     d="m 87.932203,144.53959 c -12.292027,-2.7335 -14.49314,-2.8468 -24.965295,-1.28516 -11.86658,1.7696 -19.819368,1.53259 -24.493069,-0.7299 -9.472975,-4.58579 -18.953278,-18.39498 -23.56963,-34.33197 -1.412584,-4.87665 -1.548277,-6.71171 -1.548277,-20.938323 0,-16.9463 0.255001,-18.543077 4.456861,-27.90823 5.222014,-11.638885 17.249998,-24.896677 25.223875,-27.802903 2.742751,-0.999647 8.207753,-1.101357 11.40828,-0.212322 4.118752,1.144097 10.316878,5.654495 18.089395,13.163717 l 7.420633,7.169258 16.869973,0.11345 16.869971,0.11345 6.58601,-2.449683 6.58602,-2.449683 2.72558,3.096421 c 3.86636,4.392424 7.50206,10.050902 9.5016,14.787972 1.65771,3.927246 1.71916,4.584534 1.71205,18.310757 -0.007,12.764882 -0.17239,14.864623 -1.60282,20.303239 -4.67688,17.78195 -16.22375,34.15256 -28.27028,40.08022 -4.9451,2.43331 -14.590653,2.83996 -23.000877,0.96969 l 0,0 z"
     id="path3139"
     inkscape:connector-curvature="0" />
  <path
     style="opacity:0.98999999;fill:#ffffff;fill-opacity:1;fill-rule:nonzero;stroke:none"
     d="m 85.898305,144.21155 c -8.827884,-1.94103 -15.391571,-2.10224 -24.816187,-0.60953 -4.176502,0.6615 -9.343553,0.98633 -13.078001,0.82218 -7.862458,-0.34562 -11.385041,-1.95876 -17.412644,-7.97398 -7.000333,-6.98596 -11.329654,-14.51376 -15.231311,-26.48412 -1.75348,-5.37971 -1.897679,-6.70895 -2.169649,-19.999998 -0.225118,-11.00145 -0.05895,-15.335989 0.731117,-19.071438 2.327395,-11.003953 8.663567,-22.119297 17.75596,-31.148706 6.990083,-6.941662 11.098123,-9.107567 17.235186,-9.087001 7.397082,0.02479 12.563003,3.064663 23.824587,14.019522 l 7.17804,6.982538 17.052922,0 17.052925,0 6.25419,-2.353735 6.2542,-2.353735 1.6122,1.506277 c 3.11438,2.909771 7.81629,9.692834 10.20824,14.726617 l 2.41618,5.084745 0.26089,11.325146 c 0.29688,12.886656 -0.51795,20.556098 -2.98779,28.122248 -5.06825,15.52615 -16.21431,30.51471 -26.43282,35.54526 -6.03269,2.96989 -15.006648,3.3007 -25.708235,0.94771 z"
     id="path3141"
     inkscape:connector-curvature="0" />
  <path
     style="opacity:0.98999999;fill:#ffffff;fill-opacity:1;fill-rule:nonzero;stroke:none"
     d="m 85.559322,144.23425 c -9.283618,-1.95919 -14.430101,-2.0947 -24.216763,-0.63765 -4.280482,0.63728 -9.852491,0.97781 -13.44832,0.82187 -8.316385,-0.36064 -12.202481,-2.26754 -18.459532,-9.05807 -5.89033,-6.39254 -9.857488,-13.33477 -13.307816,-23.28768 L 13.398869,104.20339 13.142506,89.525437 C 12.911944,76.32469 13.029673,74.279902 14.312296,69.207818 17.260403,57.549637 25.536162,44.435868 34.822034,36.708086 c 5.619786,-4.676834 8.72089,-6.030641 13.856459,-6.049129 7.620571,-0.02743 12.367759,2.715358 23.735886,13.713924 l 7.533024,7.288136 16.985092,0 16.985095,0 6.27109,-2.393142 6.2711,-2.393141 1.99166,1.884667 c 3.07778,2.912451 7.70476,9.677394 10.14884,14.838252 2.19664,4.638385 2.21499,4.762511 2.44085,16.504619 0.12896,6.70399 -0.11058,14.143761 -0.55274,17.167725 -2.81725,19.267273 -16.22541,40.207743 -29.73219,46.434843 -5.44263,2.50925 -14.876234,2.70745 -25.196878,0.52941 l 0,0 z"
     id="path3143"
     inkscape:connector-curvature="0" />
</svg>
